<?xml version="1.0" encoding="UTF-8"?> <svg xmlns="http://www.w3.org/2000/svg" xmlns:xlink="http://www.w3.org/1999/xlink" version="1.1" x="0px" y="0px" viewBox="0 0 1500 200" style="enable-background:new 0 0 1500 200;" xml:space="preserve"> <style type="text/css"> .st0{opacity:0.5;} .st1{fill:#CEEEAB;} .st2{fill:#A6DD8B;} .st3{fill:#AAC3E7;} .st4{fill:none;} .st5{opacity:0.39;fill:#6D7F42;enable-background:new ;} .st6{fill:#D38484;} </style> <g class="st0"> <path class="st1" d="M1500,164.57V47.28c-39.01,20.39-77.29,42.6-77.29,42.6S1467.95,116.33,1500,164.57z"></path> <path class="st1" d="M278.19,131.74C292.25,116.04,360.6,53.37,402.65,0H0v200h122.96c0.7-0.16,1.4-0.33,2.11-0.48 C174.15,189.55,258.56,153.67,278.19,131.74z"></path> <path class="st1" d="M574.55,0H436.65C365,47.68,320.25,144.13,268.38,169.62c-23.96,11.77-55.22,20.76-87.31,30.38h503.17 c-2.44-22.13-6.07-46.5-17.34-72.25C652.36,94.54,619.89,34,574.55,0z"></path> <path class="st1" d="M1116.46,109.81c137.42-11.96,259.14-23.92,280.73-35.88c11.72-6.49,59.25-21.23,102.81-41.95V0H855.48 C913.01,56.24,985.17,121.24,1116.46,109.81z"></path> <path class="st1" d="M710.33,197.28L710.33,197.28c-0.11-0.01-0.25,0-0.25,0.25c0,0,0.06,0.89,0.21,2.47h2.1 C711.32,198.27,710.63,197.3,710.33,197.28z"></path> <path class="st1" d="M1268.85,138.72c27.1-1.28,68.31,13.74,131.88,61.28h96.14c-37.84-59.74-89.83-108.83-138.94-100.16 c-90.31,15.95-359.26,61.8-453.49-29.9c-33.76-32.85-65-55.98-93.72-69.94H694.03c-4.58,2.98-9.05,6.35-13.39,10.13 C646.68,39.69,694.41,121.01,743.71,200h470.1C1219.05,180.04,1227.75,140.66,1268.85,138.72z"></path> <path class="st2" d="M1268.85,138.72c-41.1,1.95-49.8,41.32-55.04,61.28h186.92C1337.17,152.46,1295.96,137.44,1268.85,138.72z"></path> <path class="st3" d="M436.65,0h-34.01c-42.05,53.37-110.4,116.04-124.45,131.74c-19.63,21.93-104.05,57.81-153.13,67.78 c-0.7,0.14-1.4,0.32-2.11,0.48h58.1c32.09-9.62,63.35-18.61,87.31-30.38C320.25,144.13,365,47.68,436.65,0z"></path> <path class="st3" d="M1357.93,99.84c49.12-8.67,101.1,40.42,138.94,100.16h3.13v-35.43c-32.05-48.24-77.29-74.7-77.29-74.7 s38.28-22.21,77.29-42.6v-15.3c-43.55,20.72-91.09,35.46-102.81,41.95c-21.59,11.96-143.31,23.92-280.73,35.88 C985.17,121.24,913.01,56.24,855.48,0h-44.76c28.72,13.96,59.96,37.09,93.72,69.94C998.67,161.64,1267.63,115.79,1357.93,99.84z"></path> <path class="st3" d="M680.64,10.13c4.34-3.78,8.8-7.16,13.39-10.13H574.55c45.34,34,77.81,94.54,92.35,127.75 c11.27,25.74,14.9,50.11,17.34,72.25h26.06c-0.15-1.58-0.21-2.47-0.21-2.47c0-0.25,0.14-0.26,0.24-0.25l0,0 c0.29,0.02,0.99,0.99,2.06,2.72h31.32C694.41,121.01,646.68,39.69,680.64,10.13z"></path> <path class="st4" d="M1129.13,68.52c-23.7,2.47-46.12,4.33-65.8,5.97c-30.4,2.53-54.42,4.53-62.04,7.26 c-21.09,7.56-49.22-6.48-71.83-17.76c-11.96-5.97-24.33-12.14-28.06-10.24c-0.58,0.29-0.71,0.61-0.77,0.91 c-0.81,4.1,9.22,15.8,18.08,26.13c10.82,12.62,23.09,26.92,26.85,38.39c1.2,3.66-0.21,7.54-4.19,11.54 c-11.2,11.24-44.14,24.01-83.91,32.55c-42.19,9.06-79.16,10.64-98.9,4.23c-25.08-8.15-42.57-27.47-56.63-43 c-13.77-15.21-23.73-26.21-34.15-20.92c-7.88,4-10.98,20.13-14.27,37.21c-4.08,21.23-8.86,45.98-24.11,59.21h507.78l-55.23-32.83 L1129.13,68.52z"></path> <path class="st4" d="M339.94,140.6L300.1,91.65c-20.46,17.71-52.14,32.65-85.24,48.27c-7.97,3.76-16.2,7.64-24.16,11.52 c-17.18,8.37-38.01,12.34-64.38,17.36C95.04,174.75,56.41,182.11,8.44,200h565.59L450.28,86.58L339.94,140.6z"></path> <path class="st4" d="M206.79,90.06l7.38-2.97c27.32-10.98,47.11-18.93,61.47-25.49L225.51,0h-56.88C142.76,12.55,91.32,19.94,0,28 v71.63c7.2,0.91,14.27,1.85,21.25,2.77C86.31,111.02,137.7,117.83,206.79,90.06z"></path> <path class="st4" d="M138.44,123.84c73.31-14.08,104.43-24.31,138.72-45.59c2.82-1.75,5.46-3.4,7.98-4.98l-6.95-8.54 c-14.66,6.74-34.82,14.84-62.56,25.98l-7.38,2.97c-37.84,15.21-70.38,20.2-102.64,20.2c-27.45,0-54.7-3.61-84.87-7.61 c-6.82-0.9-13.72-1.82-20.74-2.71v8.64c13.84,1.94,26.76,4.25,39.16,6.48C74.18,124.96,104.42,130.38,138.44,123.84z"></path> <path class="st4" d="M0,0v24.07C80.84,16.9,130.88,10.19,158.51,0H0z"></path> <path class="st4" d="M313.54,21.96c0.35-5.04,0.51-12.67,0.39-21.96h-78.36l47.34,58.16C307.61,46.04,312.4,38.22,313.54,21.96z"></path> <path class="st4" d="M294.26,72.09l9.07,11.15c3.34-3.37,6.23-6.83,8.57-10.39c9.99-15.22,23.36-42.3,32.9-72.85h-13.98 c-0.22,9.38-0.75,18.81-1.59,28.25C327.51,47.32,318.93,56.14,294.26,72.09z"></path> <path class="st4" d="M649.68,140.05c3.62-18.83,6.75-35.09,16.34-39.96c13.09-6.65,24.44,5.9,38.82,21.78 c13.74,15.18,30.85,34.07,54.94,41.9c19.11,6.21,55.32,4.59,96.87-4.33c38.48-8.26,71.42-20.92,81.96-31.49 c2.86-2.87,3.95-5.41,3.25-7.56c-3.52-10.73-15.52-24.72-26.11-37.07c-12.48-14.55-20.07-23.76-18.95-29.44 c0.32-1.59,1.3-2.85,2.84-3.63c5.49-2.79,16.43,2.67,31.58,10.23c20.79,10.37,49.25,24.58,68.77,17.58 c8.11-2.91,31.15-4.82,63.04-7.47c19.94-1.66,43.28-3.6,68.11-6.23L1161.9,0H348.86c-9.69,31.45-23.44,59.38-33.7,75 c-2.57,3.92-5.71,7.68-9.32,11.32l36.24,44.53l109.54-53.63L585.6,200h37.27C640.25,188.96,645.19,163.35,649.68,140.05z"></path> <path class="st4" d="M1435.24,133.5c0.97,6.88,1.98,13.99,1.19,20.4c-0.87,7.1-24.89,15.55-74.77,32.46 c-12.53,4.25-25.97,8.81-39.7,13.63H1500V94.62c-32.98,8.04-59.2,14.84-62.53,16.86C1432.55,114.48,1433.86,123.72,1435.24,133.5z"></path> <path class="st4" d="M1412.16,164.38c18.57-7.34,20.3-10.24,20.4-10.95c0.73-5.9-0.24-12.75-1.18-19.38 c-1.57-11.09-3.06-21.57,4.07-25.91c3.81-2.32,31.29-9.46,64.56-17.58V0h-135.45c-7.85,7.42-17.71,14.3-29.58,20.6 c-21.37,11.33-49.86,21.12-84.68,29.09c-36.43,8.34-75.49,13.85-112.03,17.85l-46.18,96.56l60.4,35.9h157.81 c17.32-6.21,34.43-12.01,50.12-17.33C1381.16,175.63,1399.08,169.56,1412.16,164.38z"></path> <path class="st4" d="M317.44,22.23c-1.26,17.91-6.26,26.34-31.99,39.05l6.33,7.78c24.22-15.6,31.97-23.56,33.54-41.15 c0.84-9.33,1.35-18.64,1.58-27.9h-9.07C317.96,9.41,317.8,17.14,317.44,22.23z"></path> <path class="st4" d="M1358.84,0h-188.27l-30.31,63.38C1221.28,54.36,1315.34,37.72,1358.84,0z"></path> <path class="st4" d="M189,147.93c7.97-3.89,16.22-7.78,24.2-11.54c31.57-14.89,63.97-30.18,84.41-47.8l-9.98-12.26 c-2.65,1.67-5.43,3.4-8.4,5.25c-34.77,21.58-66.18,31.92-140.05,46.11c-11.22,2.16-22.01,3.04-32.66,3.04 c-22.33,0-44.08-3.9-68.04-8.19c-12.19-2.18-24.89-4.46-38.48-6.37v82.87c51.53-19.96,92.62-27.79,125.6-34.07 C151.68,159.99,172.29,156.07,189,147.93z"></path> <path class="st5" d="M158.51,0C130.88,10.19,80.84,16.9,0,24.07V28c91.32-8.06,142.76-15.45,168.62-28H158.51z"></path> <path class="st5" d="M303.33,83.24l2.51,3.08c3.62-3.64,6.75-7.41,9.32-11.32c10.25-15.62,24.01-43.55,33.7-75h-4.07 c-9.53,30.55-22.9,57.63-32.9,72.85C309.56,76.41,306.67,79.87,303.33,83.24z"></path> <path class="st5" d="M190.71,151.44c7.95-3.88,16.19-7.76,24.16-11.52c33.1-15.61,64.78-30.56,85.24-48.27l-2.5-3.07 c-20.44,17.63-52.84,32.91-84.41,47.8c-7.98,3.76-16.23,7.65-24.2,11.54c-16.71,8.14-37.31,12.07-63.4,17.03 c-32.98,6.28-74.07,14.1-125.6,34.07V200h8.44c47.97-17.89,86.6-25.25,117.89-31.2C152.7,163.78,173.53,159.81,190.71,151.44z"></path> <path class="st5" d="M106.52,130.72c10.65,0,21.44-0.89,32.66-3.04c73.86-14.19,105.28-24.53,140.05-46.11 c2.97-1.84,5.75-3.58,8.4-5.25l-2.48-3.05c-2.51,1.58-5.16,3.23-7.98,4.98c-34.29,21.28-65.41,31.51-138.72,45.59 c-34.02,6.54-64.26,1.12-99.28-5.16c-12.4-2.22-25.32-4.54-39.16-6.48v3.95c13.58,1.91,26.28,4.19,38.48,6.37 C62.44,126.82,84.19,130.72,106.52,130.72z"></path> <path class="st5" d="M291.78,69.05l2.48,3.04c24.67-15.95,33.25-24.77,34.96-43.85c0.85-9.44,1.37-18.87,1.59-28.25h-3.91 c-0.22,9.26-0.74,18.57-1.58,27.9C323.75,45.49,316,53.45,291.78,69.05z"></path> <path class="st5" d="M1138.26,67.54c36.54-4,75.6-9.51,112.03-17.85c34.82-7.97,63.31-17.76,84.68-29.09 c11.87-6.3,21.73-13.18,29.58-20.6h-5.71c-43.5,37.72-137.56,54.36-218.59,63.38L1138.26,67.54z"></path> <path class="st5" d="M653.51,140.79c3.29-17.08,6.39-33.21,14.27-37.21c10.43-5.29,20.38,5.7,34.15,20.92 c14.06,15.53,31.55,34.85,56.63,43c19.73,6.41,56.7,4.83,98.9-4.23c39.77-8.54,72.71-21.32,83.91-32.55c3.98-4,5.4-7.88,4.19-11.54 c-3.76-11.47-16.03-25.77-26.85-38.39c-8.86-10.33-18.9-22.03-18.08-26.13c0.06-0.3,0.19-0.62,0.77-0.91 c3.74-1.89,16.1,4.27,28.06,10.24c22.61,11.28,50.74,25.32,71.83,17.76c7.62-2.73,31.64-4.73,62.04-7.26 c19.68-1.64,42.1-3.5,65.8-5.97l1.99-4.15c-24.83,2.63-48.17,4.57-68.11,6.23c-31.89,2.65-54.93,4.57-63.04,7.47 c-19.52,7-47.98-7.21-68.77-17.58c-15.15-7.56-26.09-13.02-31.58-10.23c-1.54,0.78-2.52,2.04-2.84,3.63 c-1.13,5.67,6.47,14.88,18.95,29.44c10.59,12.34,22.58,26.33,26.11,37.07c0.71,2.15-0.39,4.69-3.25,7.56 c-10.54,10.57-43.48,23.23-81.96,31.49c-41.55,8.92-77.76,10.54-96.87,4.33c-24.09-7.83-41.19-26.72-54.94-41.9 c-14.38-15.88-25.73-28.42-38.82-21.78c-9.59,4.87-12.72,21.13-16.34,39.96c-4.48,23.3-9.42,48.91-26.8,59.95h6.53 C644.65,186.77,649.43,162.02,653.51,140.79z"></path> <path class="st5" d="M1435.44,108.14c-7.12,4.34-5.64,14.82-4.07,25.91c0.94,6.62,1.91,13.48,1.18,19.38 c-0.09,0.71-1.83,3.61-20.4,10.95c-13.08,5.17-31,11.25-51.75,18.29c-15.7,5.32-32.8,11.12-50.12,17.33h11.68 c13.72-4.82,27.16-9.38,39.7-13.63c49.88-16.91,73.89-25.36,74.77-32.46c0.79-6.42-0.22-13.53-1.19-20.4 c-1.39-9.78-2.69-19.02,2.23-22.02c3.33-2.03,29.54-8.82,62.53-16.86v-4.05C1466.73,98.68,1439.25,105.82,1435.44,108.14z"></path> <path class="st5" d="M105.61,113.88c32.26,0,64.8-4.99,102.64-20.2l7.38-2.97c27.74-11.14,47.9-19.24,62.56-25.98l-2.55-3.13 c-14.36,6.56-34.14,14.51-61.47,25.49l-7.38,2.97C137.7,117.83,86.31,111.02,21.25,102.4C14.27,101.48,7.2,100.54,0,99.63v3.94 c7.02,0.89,13.92,1.8,20.74,2.71C50.91,110.27,78.16,113.88,105.61,113.88z"></path> <path class="st5" d="M313.54,21.96c-1.14,16.26-5.94,24.08-30.63,36.2l2.54,3.12c25.73-12.71,30.73-21.14,31.99-39.05 c0.36-5.1,0.52-12.83,0.39-22.23h-3.89C314.06,9.29,313.9,16.92,313.54,21.96z"></path> <polygon class="st6" points="342.08,130.85 305.84,86.32 303.33,83.24 294.26,72.09 291.78,69.05 285.46,61.28 282.92,58.16 235.58,0 225.51,0 275.64,61.6 278.19,64.73 285.14,73.27 287.62,76.32 297.6,88.58 300.1,91.65 339.94,140.6 450.28,86.58 574.04,200 585.6,200 451.63,77.22 "></polygon> <polygon class="st6" points="1138.26,67.54 1140.26,63.38 1170.57,0 1161.9,0 1131.12,64.37 1129.13,68.52 1081.95,167.17 1137.18,200 1152.48,200 1092.08,164.1 "></polygon> </g> </svg> 